# xmcd
#
# Track frame offsets:
#	150
#	8920
#	28783
#	43677
#	58467
#	74723
#	92023
#	110683
#	126416
#	144719
#	160379
#	179777
#	197941
#	215034
#	231049
#
# Disc length: 3296 seconds
#
# Revision: 0
# Processed by: cddbd v1.5.1PL0 Copyright (c) Steve Scherf et al.
# Submitted via: dBpowerAMP V4.0
#
DISCID=f60cde0f
DTITLE=원진 - 일반기요
DYEAR=2004
DGENRE=Acid Jazz
TTITLE0=리졸버
TTITLE1=그냥
TTITLE2=나나
TTITLE3=오리
TTITLE4=고니
TTITLE5=바보
TTITLE6=슬픔
TTITLE7=고난
TTITLE8=나나2
TTITLE9=메롱
TTITLE10=우리
TTITLE11=너희
TTITLE12=나는
TTITLE13=바보
TTITLE14=웩
EXTD=일반가요
EXTT0=
EXTT1=
EXTT2=
EXTT3=
EXTT4=
EXTT5=
EXTT6=
EXTT7=
EXTT8=
EXTT9=
EXTT10=
EXTT11=
EXTT12=
EXTT13=
EXTT14=
PLAYORDER=
